<svg width="17" height="17" viewBox="0 0 17 17" fill="none" xmlns="http://www.w3.org/2000/svg">
<path d="M9.32868 8.50003L15.8284 2.00029C16.0572 1.77145 16.0572 1.40044 15.8284 1.17163C15.5996 0.94282 15.2285 0.942791 14.9997 1.17163L8.49999 7.67137L2.00029 1.17163C1.77145 0.942791 1.40044 0.942791 1.17163 1.17163C0.94282 1.40047 0.942791 1.77148 1.17163 2.00029L7.67133 8.5L1.17163 14.9997C0.942791 15.2286 0.942791 15.5996 1.17163 15.8284C1.28603 15.9428 1.436 16 1.58597 16C1.73594 16 1.88588 15.9428 2.00032 15.8284L8.49999 9.32869L14.9997 15.8284C15.1141 15.9428 15.2641 16 15.414 16C15.564 16 15.714 15.9428 15.8284 15.8284C16.0572 15.5996 16.0572 15.2285 15.8284 14.9997L9.32868 8.50003Z" fill="#070707" stroke="black" stroke-width="0.5"/>
</svg>
