<svg width="20" height="20" viewBox="0 0 20 20" fill="none" xmlns="http://www.w3.org/2000/svg">
<mask id="mask0" mask-type="alpha" maskUnits="userSpaceOnUse" x="0" y="0" width="20" height="20">
<path d="M0.799805 0.799988H19.202V19.2H0.799805V0.799988Z" fill="white"/>
</mask>
<g mask="url(#mask0)">
<path fill-rule="evenodd" clip-rule="evenodd" d="M10.0009 0.799988C7.50204 0.799988 7.18869 0.81058 6.2073 0.855356C5.22795 0.900028 4.55909 1.05558 3.97384 1.28305C3.36878 1.51816 2.85566 1.83277 2.3441 2.34428C1.83259 2.85584 1.51797 3.36896 1.28287 3.97402C1.0554 4.55928 0.899845 5.22813 0.855173 6.20748C0.810397 7.18888 0.799805 7.50222 0.799805 10.0011C0.799805 12.5 0.810397 12.8133 0.855173 13.7947C0.899845 14.7741 1.0554 15.4429 1.28287 16.0281C1.51797 16.6332 1.83259 17.1463 2.3441 17.6579C2.85566 18.1694 3.36878 18.484 3.97384 18.7192C4.55909 18.9465 5.22795 19.1021 6.2073 19.1468C7.18869 19.1916 7.50204 19.2021 10.0009 19.2021C12.4998 19.2021 12.8131 19.1916 13.7945 19.1468C14.7739 19.1021 15.4427 18.9465 16.028 18.7192C16.633 18.484 17.1461 18.1694 17.6577 17.6579C18.1692 17.1463 18.4838 16.6332 18.719 16.0281C18.9464 15.4429 19.102 14.7741 19.1466 13.7947C19.1914 12.8133 19.202 12.5 19.202 10.0011C19.202 7.50222 19.1914 7.18888 19.1466 6.20748C19.102 5.22813 18.9464 4.55928 18.719 3.97402C18.4838 3.36896 18.1692 2.85584 17.6577 2.34428C17.1461 1.83277 16.633 1.51816 16.028 1.28305C15.4427 1.05558 14.7739 0.900028 13.7945 0.855356C12.8131 0.81058 12.4998 0.799988 10.0009 0.799988ZM10.0009 2.45784C12.4577 2.45784 12.7487 2.46723 13.7189 2.51149C14.616 2.5524 15.1032 2.70229 15.4274 2.8283C15.8569 2.99521 16.1634 3.1946 16.4854 3.5166C16.8074 3.83855 17.0068 4.14506 17.1736 4.57454C17.2997 4.89876 17.4496 5.38596 17.4905 6.28305C17.5348 7.25327 17.5441 7.54429 17.5441 10.0011C17.5441 12.4579 17.5348 12.7489 17.4905 13.7191C17.4496 14.6162 17.2997 15.1034 17.1736 15.4276C17.0068 15.8571 16.8074 16.1636 16.4854 16.4856C16.1634 16.8076 15.8569 17.0069 15.4274 17.1738C15.1032 17.2999 14.616 17.4497 13.7189 17.4907C12.7488 17.5349 12.4579 17.5443 10.0009 17.5443C7.54392 17.5443 7.25298 17.5349 6.28287 17.4907C5.38577 17.4497 4.89858 17.2999 4.57436 17.1738C4.14488 17.0069 3.83836 16.8076 3.51641 16.4856C3.19445 16.1636 2.99503 15.8571 2.82812 15.4276C2.70211 15.1034 2.55222 14.6162 2.51131 13.7191C2.46704 12.7489 2.45766 12.4579 2.45766 10.0011C2.45766 7.54429 2.46704 7.25327 2.51131 6.28305C2.55222 5.38596 2.70211 4.89876 2.82812 4.57454C2.99503 4.14506 3.19441 3.83855 3.51641 3.5166C3.83836 3.1946 4.14488 2.99521 4.57436 2.8283C4.89858 2.70229 5.38577 2.5524 6.28287 2.51149C7.25308 2.46723 7.54411 2.45784 10.0009 2.45784Z" fill="white"/>
<path fill-rule="evenodd" clip-rule="evenodd" d="M10.0012 13.0682C8.3074 13.0682 6.93422 11.695 6.93422 10.0012C6.93422 8.30728 8.3074 6.93412 10.0012 6.93412C11.6952 6.93412 13.0683 8.30728 13.0683 10.0012C13.0683 11.695 11.6952 13.0682 10.0012 13.0682ZM10.0012 5.27628C7.39176 5.27628 5.27637 7.39166 5.27637 10.0012C5.27637 12.6106 7.39176 14.726 10.0012 14.726C12.6108 14.726 14.7261 12.6106 14.7261 10.0012C14.7261 7.39166 12.6108 5.27628 10.0012 5.27628Z" fill="white"/>
<path fill-rule="evenodd" clip-rule="evenodd" d="M16.0169 5.0896C16.0169 5.6994 15.5225 6.19371 14.9128 6.19371C14.303 6.19371 13.8086 5.6994 13.8086 5.0896C13.8086 4.4798 14.303 3.98544 14.9128 3.98544C15.5225 3.98544 16.0169 4.4798 16.0169 5.0896Z" fill="white"/>
</g>
</svg>
