<svg width="20" height="20" viewBox="0 0 20 20" fill="none" xmlns="http://www.w3.org/2000/svg">
<path fill-rule="evenodd" clip-rule="evenodd" d="M6.99311 0.125885H13.077C18.6295 0.125885 19.9442 1.44057 19.9442 6.99301V13.077C19.9442 18.6294 18.6295 19.9441 13.077 19.9441H6.99311C1.44066 19.9441 0.125977 18.6294 0.125977 13.077V6.99301C0.125977 1.44057 1.44066 0.125885 6.99311 0.125885Z" fill="white"/>
<path fill-rule="evenodd" clip-rule="evenodd" d="M16.3492 6.95103C16.4471 6.64334 16.3492 6.41956 15.9156 6.41956H14.4751C14.1114 6.41956 13.9436 6.61537 13.8457 6.82515C13.8457 6.82515 13.1044 8.61537 12.0695 9.77617C11.7338 10.1119 11.58 10.2238 11.3981 10.2238C11.3003 10.2238 11.1744 10.1119 11.1744 9.80417V6.93704C11.1744 6.57341 11.0625 6.40558 10.7548 6.40558H8.48909C8.26533 6.40558 8.12541 6.57341 8.12541 6.74124C8.12541 7.09089 8.64293 7.17481 8.69885 8.15385V10.2797C8.69885 10.7412 8.61493 10.8251 8.43309 10.8251C7.94361 10.8251 6.7548 9.02097 6.04152 6.96502C5.90165 6.55943 5.7618 6.40558 5.39816 6.40558H3.94361C3.52403 6.40558 3.4541 6.60138 3.4541 6.81117C3.4541 7.18879 3.94361 9.09089 5.73382 11.6084C6.92264 13.3287 8.61493 14.2518 10.1394 14.2518C11.0625 14.2518 11.1744 14.0419 11.1744 13.6923V12.3916C11.1744 11.972 11.2583 11.9021 11.552 11.9021C11.7618 11.9021 12.1394 12.0139 12.9925 12.8391C13.9716 13.8182 14.1394 14.2657 14.6848 14.2657H16.1254C16.545 14.2657 16.7408 14.0559 16.6289 13.6503C16.5031 13.2447 16.0276 12.6573 15.4121 11.958C15.0764 11.5664 14.573 11.1328 14.4192 10.9231C14.2093 10.6434 14.2653 10.5315 14.4192 10.2797C14.4052 10.2797 16.1674 7.79019 16.3492 6.95103Z" fill="#202020"/>
</svg>
